<svg xmlns="http://www.w3.org/2000/svg" x="0px" y="0px" width="100" height="100" viewBox="0 0 48 48">
    <linearGradient id="SVGID_1__Yfprg8CASXbD_gr1" x1="38.87" x2="9.13" y1="6.706" y2="36.446" gradientUnits="userSpaceOnUse"><stop offset="0" stop-color="#fea460"></stop><stop offset=".033" stop-color="#feaa6a"></stop><stop offset=".197" stop-color="#fec497"></stop><stop offset=".362" stop-color="#ffd9bd"></stop><stop offset=".525" stop-color="#ffeada"></stop><stop offset=".687" stop-color="#fff5ee"></stop><stop offset=".846" stop-color="#fffdfb"></stop><stop offset="1" stop-color="#fff"></stop></linearGradient><path fill="url(#SVGID_1__Yfprg8CASXbD_gr1)" d="M37.512,6.191H10.488c-1.182,0-2.113,1-2.02,2.169l2.318,29.067c0.063,0.788,0.586,1.467,1.336,1.734	l11.193,3.98c0.442,0.157,0.925,0.157,1.367,0l11.193-3.98c0.75-0.267,1.274-0.945,1.336-1.734L39.532,8.36	C39.625,7.191,38.694,6.191,37.512,6.191z"></path><path fill="none" stroke="#fe7c12" stroke-linecap="round" stroke-linejoin="round" stroke-miterlimit="10" stroke-width="3" d="M37.787,28.147l1.542-19.489C39.421,7.495,38.502,6.5,37.335,6.5H10.665c-1.167,0-2.086,0.995-1.994,2.158	l0.564,7.133"></path><path fill="none" stroke="#fe7c12" stroke-linecap="round" stroke-linejoin="round" stroke-miterlimit="10" stroke-width="3" d="M9.759,22.415l1.2,15.159c0.062,0.784,0.578,1.46,1.319,1.725l11.047,3.959c0.436,0.156,0.913,0.156,1.349,0	l11.047-3.959c0.741-0.265,1.257-0.941,1.319-1.725l0.281-3.551"></path><path fill="#fe7c12" d="M31.371,16H18.22l0.44,6h12.783c0.581,0,1.04,0.494,0.997,1.074l-0.731,9.874	c-0.03,0.406-0.304,0.754-0.692,0.878L24.3,35.981c-0.202,0.065-0.418,0.064-0.619-0.003l-6.527-2.158	c-0.384-0.127-0.653-0.472-0.683-0.875l-0.25-3.333C16.156,28.742,16.844,28,17.717,28h0c0.786,0,1.438,0.606,1.496,1.39l0.148,2	l4.65,1.53l4.81-1.54L29.29,25H16.808c-0.523,0-0.958-0.403-0.997-0.925l-0.75-10C15.017,13.495,15.476,13,16.058,13h15.313	c0.874,0,1.562,0.744,1.496,1.615v0C32.806,15.396,32.155,16,31.371,16z"></path>
    </svg>