<svg xmlns="http://www.w3.org/2000/svg" version="1.1" xmlns:xlink="http://www.w3.org/1999/xlink" xmlns:svgjs="http://svgjs.dev/svgjs" width="2000" height="1999" viewBox="0 0 2000 1999"><g transform="matrix(1,0,0,1,-0.431486880466764,-0.4312711370263287)"><svg viewBox="0 0 343 343" data-background-color="#000000" preserveAspectRatio="xMidYMid meet" height="1999" width="2000" xmlns="http://www.w3.org/2000/svg" xmlns:xlink="http://www.w3.org/1999/xlink"><g id="tight-bounds" transform="matrix(1,0,0,1,0.0740000000000407,0.07400000000001228)"><svg viewBox="0 0 342.85155851775386 342.85155851775386" height="342.85155851775386" width="342.85155851775386"><g><svg></svg></g><g><svg viewBox="0 0 342.85155851775386 342.85155851775386" height="342.85155851775386" width="342.85155851775386"><g><path d="M0 171.426c0-94.676 76.75-171.426 171.426-171.426 94.676 0 171.426 76.75 171.426 171.426 0 94.676-76.75 171.426-171.426 171.426-94.676 0-171.426-76.75-171.426-171.426zM171.426 334.33c89.97 0 162.905-72.935 162.904-162.904 0-89.97-72.935-162.905-162.904-162.905-89.97 0-162.905 72.935-162.905 162.905 0 89.97 72.935 162.905 162.905 162.904z" data-fill-palette-color="tertiary" fill="#deeff9" stroke="transparent"></path><ellipse rx="164.56874808852186" ry="164.56874808852186" cx="171.42577925887693" cy="171.42577925887693" fill="#deeff9" stroke="transparent" stroke-width="0" fill-opacity="1" data-fill-palette-color="tertiary"></ellipse></g><g transform="matrix(1,0,0,1,64.84655864529837,124.1804776801211)"><svg viewBox="0 0 213.1584412271571 94.49060315751166" height="94.49060315751166" width="213.1584412271571"><g><svg viewBox="0 0 213.1584412271571 94.49060315751166" height="94.49060315751166" width="213.1584412271571"><g><svg viewBox="0 0 213.1584412271571 94.49060315751166" height="94.49060315751166" width="213.1584412271571"><g><svg viewBox="0 0 213.1584412271571 94.49060315751166" height="94.49060315751166" width="213.1584412271571"><g id="textblocktransform"><svg viewBox="0 0 213.1584412271571 94.49060315751166" height="94.49060315751166" width="213.1584412271571" id="textblock"><g><svg viewBox="0 0 213.1584412271571 94.49060315751166" height="94.49060315751166" width="213.1584412271571"><g transform="matrix(1,0,0,1,0,0)"><svg width="213.1584412271571" viewBox="3.1447915000199997 -41.85 109.62492848954 48.60000000000001" height="94.49060315751166" data-palette-color="#265674"><path d="M21.05 6.75L18.7 6.75Q14.25 6.75 12.55 5.35L12.55 5.35 12.6 5.35Q10.85 3.85 10.85-0.5L10.85-0.5 10.85-8.4Q10.85-10.3 10.55-11.63 10.25-12.95 9.55-13.78 8.85-14.6 7.68-14.98 6.5-15.35 4.75-15.35L4.75-15.35Q3.25-15.35 3.15-17.5L3.15-17.5Q3.05-19.75 4.75-19.75L4.75-19.75Q8.05-19.75 9.45-21.33 10.85-22.9 10.85-26.7L10.85-26.7 10.85-34.6Q10.85-39.25 13.05-40.7L13.05-40.7Q13.8-41.3 15.25-41.58 16.7-41.85 18.7-41.85L18.7-41.85 21.05-41.85Q22.55-41.85 22.55-39.7L22.55-39.7Q22.6-37.6 21-37.6L21-37.6 19.4-37.6Q17.7-37.6 16.4-36.95L16.4-36.95Q16.15-36.55 15.9-35.77 15.65-35 15.65-33.9L15.65-33.9 15.65-25.25Q15.65-22.4 14.23-20.48 12.8-18.55 10.4-17.5L10.4-17.5Q12.8-16.55 14.23-14.68 15.65-12.8 15.65-9.85L15.65-9.85 15.65-1.2Q15.65 0.15 15.93 0.9 16.2 1.65 16.65 1.95L16.65 1.95Q17.6 2.5 19.4 2.5L19.4 2.5 21.05 2.5Q22.75 2.5 22.75 4.6L22.75 4.6Q22.8 6.75 21.05 6.75L21.05 6.75ZM38.3-22.85L47.95-22.85Q49.25-22.85 50.65-22.3 52.05-21.75 53.35-20.85L53.35-20.85 53.3-20.85Q54.6-19.95 55.3-18.4 56-16.85 56-14.85L56-14.85 56-8Q56-3.95 53.3-1.95L53.3-1.95Q52-1 50.62-0.48 49.25 0.05 47.95 0.05L47.95 0.05 37.05 0.05Q35.75 0.05 34.37-0.48 33-1 31.7-1.95L31.7-1.95Q29-3.95 29-8L29-8 29-11.3Q29-13.65 31.95-13.65L31.95-13.65Q34.95-13.65 34.95-11.3L34.95-11.3 34.95-8.4Q34.95-7.1 35.7-6.05 36.45-5 38.3-5L38.3-5 46.7-5Q48.55-5 49.3-6.05 50.05-7.1 50.05-8.4L50.05-8.4 50.05-14.45Q50.05-15.7 49.3-16.78 48.55-17.85 46.7-17.85L46.7-17.85 37.05-17.85Q34.45-17.85 31.7-19.75L31.7-19.75Q29-21.85 29-25.8L29-25.8 29-31.75Q29-33.75 29.7-35.27 30.4-36.8 31.7-37.75L31.7-37.75 31.65-37.75Q32.95-38.6 34.35-39.15 35.75-39.7 37.05-39.7L37.05-39.7 47.95-39.7Q49.25-39.7 50.65-39.15 52.05-38.6 53.35-37.75L53.35-37.75 53.3-37.75Q54.6-36.8 55.3-35.27 56-33.75 56-31.75L56-31.75 56-28.8Q56-26.45 53-26.45L53-26.45Q50.05-26.45 50.05-28.8L50.05-28.8 50.05-31.3Q50.05-32.55 49.3-33.6 48.55-34.65 46.7-34.65L46.7-34.65 38.3-34.65Q36.45-34.65 35.7-33.6 34.95-32.55 34.95-31.3L34.95-31.3 34.95-26.2Q34.95-24.9 35.7-23.88 36.45-22.85 38.3-22.85L38.3-22.85ZM75.59 0.25L75.59 0.25Q74.59 0.25 73.47-0.08 72.34-0.4 71.84-1.3L71.84-1.3Q70.69-5.2 69.44-9.3 68.19-13.4 66.94-17.35L66.94-17.35Q65.55-22 63.95-27.03 62.34-32.05 60.95-36.65L60.95-36.65Q60.64-37.75 61.3-38.58 61.95-39.4 63.14-39.8L63.14-39.8Q63.89-40 64.44-40L64.44-40Q66.14-40 66.64-38.3L66.64-38.3 70.34-26.45Q70.84-24.65 71.52-22.5 72.19-20.35 72.89-18.1 73.59-15.85 74.3-13.63 75-11.4 75.59-9.5L75.59-9.5Q76.55-12.65 77.67-16.32 78.8-20 79.97-23.8 81.14-27.6 82.3-31.33 83.44-35.05 84.44-38.3L84.44-38.3Q85-40 86.59-40L86.59-40Q87.19-40 88-39.8L88-39.8Q90.75-39.05 90.14-36.65L90.14-36.65Q87.44-27.9 84.69-19 81.94-10.1 79.25-1.3L79.25-1.3Q78.84-0.3 77.77-0.03 76.69 0.25 75.59 0.25ZM111.14-15.35L111.14-15.35Q109.39-15.35 108.22-14.98 107.04-14.6 106.34-13.78 105.64-12.95 105.37-11.63 105.09-10.3 105.09-8.4L105.09-8.4 105.09-0.5Q105.09 1.75 104.64 3.18 104.19 4.6 103.34 5.35L103.34 5.35 103.39 5.35Q101.59 6.75 97.19 6.75L97.19 6.75 94.84 6.75Q93.19 6.75 93.19 4.6L93.19 4.6Q93.19 2.5 94.84 2.5L94.84 2.5 96.49 2.5Q97.49 2.5 98.14 2.35 98.79 2.2 99.24 1.95L99.24 1.95Q99.74 1.65 99.99 0.9 100.24 0.15 100.24-1.2L100.24-1.2 100.24-9.85Q100.24-12.85 101.64-14.7 103.04-16.55 105.54-17.5L105.54-17.5Q103.14-18.5 101.69-20.4 100.24-22.3 100.24-25.25L100.24-25.25 100.24-33.9Q100.24-36.45 99.24-37.05L99.24-37.05Q98.79-37.3 98.14-37.45 97.49-37.6 96.49-37.6L96.49-37.6 94.84-37.6Q93.29-37.6 93.29-39.7L93.29-39.7Q93.34-41.85 94.84-41.85L94.84-41.85 97.19-41.85Q101.39-41.85 103.19-40.5L103.19-40.5Q105.09-39.15 105.09-34.6L105.09-34.6 105.09-26.7Q105.09-22.9 106.47-21.33 107.84-19.75 111.14-19.75L111.14-19.75Q112.99-19.75 112.74-17.5L112.74-17.5Q112.69-15.35 111.14-15.35Z" opacity="1" transform="matrix(1,0,0,1,0,0)" fill="#265674" class="wordmark-text-0" data-fill-palette-color="quaternary" id="text-0"></path></svg></g></svg></g></svg></g></svg></g><g></g></svg></g></svg></g></svg></g></svg></g><defs></defs></svg><rect width="342.85155851775386" height="342.85155851775386" fill="none" stroke="none" visibility="hidden"></rect></g></svg></g></svg>